<?xml version="1.0" encoding="UTF-8" standalone="no"?>
<!-- Created with Inkscape (http://www.inkscape.org/) -->

<svg
   version="1.1"
   id="svg1"
   width="1600"
   height="1600"
   viewBox="0 0 1600 1600"
   sodipodi:docname="rrrrrrrrrrrrrrrrrrrr7.svg"
   inkscape:version="1.3 (0e150ed6c4, 2023-07-21)"
   xmlns:inkscape="http://www.inkscape.org/namespaces/inkscape"
   xmlns:sodipodi="http://sodipodi.sourceforge.net/DTD/sodipodi-0.dtd"
   xmlns="http://www.w3.org/2000/svg"
   xmlns:svg="http://www.w3.org/2000/svg">
  <defs
     id="defs1" />
  <sodipodi:namedview
     id="namedview1"
     pagecolor="#ffffff"
     bordercolor="#000000"
     borderopacity="0.25"
     inkscape:showpageshadow="2"
     inkscape:pageopacity="0.0"
     inkscape:pagecheckerboard="0"
     inkscape:deskcolor="#d1d1d1"
     inkscape:zoom="0.508125"
     inkscape:cx="800.98401"
     inkscape:cy="800"
     inkscape:window-width="1920"
     inkscape:window-height="1009"
     inkscape:window-x="-8"
     inkscape:window-y="-8"
     inkscape:window-maximized="1"
     inkscape:current-layer="g1" />
  <g
     inkscape:groupmode="layer"
     inkscape:label="Image"
     id="g1">
    <path
       style="fill:#000000"
       d="M 0,800 V 0 h 800 800 v 800 800 H 800 0 Z m 565.63307,430.6792 4.92829,3.0324 3.84967,-4.4254 c 2.11732,-2.434 3.45352,-4.7641 2.96932,-5.1779 -0.48419,-0.4138 -2.72438,-2.1661 -4.9782,-3.8939 l -4.09786,-3.1415 -2.83923,2.9636 c -1.56159,1.6299 -3.25279,2.9635 -3.75825,2.9635 -0.50545,0 -2.61798,-1.3456 -4.69452,-2.9903 l -3.77552,-2.9902 -4.11838,4.4679 c -2.26512,2.4573 -4.11839,4.691 -4.11839,4.9637 0,0.2727 2.29397,2.0406 5.0977,3.9288 l 5.09771,3.433 2.75468,-3.0831 2.75469,-3.083 z m 118.78901,-7.8592 c 1.96785,-2.299 3.55357,-4.4365 3.52382,-4.75 -0.0298,-0.3135 -2.34111,-2.0776 -5.13633,-3.9203 l -5.08222,-3.3504 -3.82104,4.3504 c -2.10157,2.3927 -3.84022,4.58 -3.86367,4.8608 -0.0491,0.5883 9.11903,6.8721 10.12944,6.9426 0.36964,0.026 2.28214,-1.8341 4.25,-4.1331 z m 241.37758,2.7693 c 3.38418,-1.768 7.50386,-6.1599 9.50551,-10.1336 4.59506,-9.1223 6.62474,-29.0047 3.89556,-38.1602 -1.36999,-4.5959 -5.6192,-10.2955 -7.67558,-10.2955 -2.19589,0 -8.13791,6.8963 -11.41218,13.245 -2.53169,4.9089 -3.11297,7.2319 -3.11297,12.4409 0,5.467 0.35945,6.7645 2.45455,8.8596 4.17921,4.1792 11.08073,3.0341 13.98665,-2.3206 0.87032,-1.6038 1.4952,-2.0854 1.51876,-1.1707 0.0728,2.8253 -5.73107,10.7184 -10.86575,14.7771 -5.3206,4.2057 -11.73766,6.7464 -18.88432,7.477 -2.35956,0.2412 -4.52621,0.6747 -4.81478,0.9633 -1.03565,1.0356 14.54279,5.2212 20.90455,5.6166 0.98981,0.061 3.01481,-0.523 4.5,-1.2989 z m -0.12343,-38.8368 c -2.16714,-1.5846 -1.35082,-4.4036 1.541,-5.3214 2.34347,-0.7438 3.92289,1.0678 3.5385,4.0587 -0.31266,2.4327 -2.67595,3.0202 -5.0795,1.2627 z m 47.12487,36.4975 c 1.94549,-2.0625 4.85354,-6.5625 6.46233,-10 l 2.92508,-6.25 h 14.82819 14.8282 l 1.3275,-3.75 c 0.8531,-2.4096 1.3276,-8.5825 1.3276,-17.2696 v -13.5197 l 3.2991,-5.1444 3.299,-5.1443 -5.0581,-4.7313 c -2.8133,-2.6316 -5.4091,-6.0856 -5.8489,-7.7829 l -0.7907,-3.0515 -3.7002,5.9156 c -4.252,6.7976 -4.4258,8.1354 -1.7415,13.3972 1.9852,3.8913 4.0199,13.8945 4.0337,19.8309 l 0.01,3.25 h -11.32569 c -12.85687,0 -12.65287,0.1066 -18.65103,-9.75 -1.75715,-2.8875 -3.37475,-5.25 -3.59466,-5.25 -0.21991,0 -1.75441,2.6834 -3.41001,5.9631 l -3.01018,5.9632 3.09238,5.2447 c 4.55811,7.7306 4.6996,10.522 0.77156,15.2219 -5.0854,6.0847 -11.36743,9.6071 -17.13389,9.6071 -2.67848,0 -5.71307,-0.4512 -6.74353,-1.0027 -1.03047,-0.5515 -2.11201,-0.6169 -2.40344,-0.1454 -1.49277,2.4154 14.69293,12.0878 20.29041,12.1254 2.62844,0.018 4.17001,-0.8128 6.91918,-3.7273 z M 1261,1218.5127 c 0,-0.5948 -1.2496,-1.8197 -2.7769,-2.7219 -1.5273,-0.9022 -3.5829,-2.5309 -4.568,-3.6194 -1.768,-1.9536 -1.8419,-1.9241 -5.7231,2.2865 -2.1626,2.3462 -3.932,4.7878 -3.932,5.426 0,0.6381 2.1164,2.5023 4.7031,4.1428 l 4.7031,2.9826 3.7969,-3.7076 c 2.0883,-2.0392 3.7969,-4.1942 3.7969,-4.789 z m -88.4781,5.704 c 3.1581,-2.6814 6.0579,-7.3038 7.6642,-12.2167 l 1.4712,-4.5 7.3368,-0.5 c 7.3337,-0.4998 7.3374,-0.5015 8.5518,-4 0.6681,-1.925 1.7588,-3.3741 2.4235,-3.2203 0.6648,0.1538 4.6747,2.9663 8.911,6.25 4.2362,3.2837 8.1739,5.9703 8.7504,5.9703 0.5765,0 1.5608,-1.125 2.1872,-2.5 1.1218,-2.4619 1.3197,-2.5 12.9862,-2.5 13.4156,0 13.165,0.1268 18.7796,-9.5 l 2.9162,-5 0.2938,7.25 0.2938,7.25 h 12.8863 12.8863 l 1.8377,-4.9264 1.8378,-4.9264 6.9821,4.4152 c 3.8402,2.4283 7.4832,4.4202 8.0956,4.4264 1.5936,0.016 6.6046,-11.6367 7.0686,-16.4375 0.2297,-2.3761 -0.5936,-7.566 -1.9911,-12.5513 -2.1741,-7.7561 -2.6168,-8.5279 -5.058,-8.8185 -5.553,-0.661 -13.239,6.7951 -17.1941,16.6798 l -1.656,4.1387 -10.1414,-0.081 c -9.4217,-0.075 -9.9285,-0.1787 -7.1414,-1.4549 1.65,-0.7555 4.0355,-1.394 5.301,-1.4188 2.3026,-0.045 4.1541,-3.0335 5.703,-9.2051 0.6215,-2.4761 0.4714,-2.5645 -5.2329,-3.0817 -3.9612,-0.3592 -8.2078,-1.7085 -13.0469,-4.1454 -7.8485,-3.9524 -11.728,-4.438 -16.3524,-2.0466 -3.6243,1.8742 -6.8186,8.3053 -6.8498,13.7907 -0.019,3.3091 0.2266,3.7456 1.728,3.0726 2.6479,-1.1868 10.9126,-1.7155 14.9569,-0.9568 l 3.591,0.6737 -2.1741,2.1768 c -1.9344,1.9367 -3.4472,2.2139 -13.7231,2.5146 -10.0911,0.2952 -11.8096,0.1058 -13.6129,-1.5 -2.7382,-2.4384 -4.7878,-7.4634 -4.7878,-11.7384 0,-4.5284 -2.4953,-5.3587 -8.3377,-2.7743 -4.8198,2.132 -9.5367,7.3416 -11.2396,12.4137 l -1.095,3.2611 -7.6638,0.2921 -7.6639,0.292 v -2.8639 c 0,-3.3311 -2.6753,-11.7144 -4.7773,-14.9702 -2.0244,-3.1354 -6.6321,-2.9903 -9.6862,0.3051 -3.6365,3.9239 -7.7225,15.0798 -8.2927,22.6413 -0.4886,6.4812 -0.4027,6.7985 2.6739,9.8752 2.7838,2.7837 3.67,3.1129 7.1306,2.6488 2.1734,-0.2916 3.9517,-0.1919 3.9517,0.2214 0,1.7609 -7.7159,8.4874 -11.8167,10.3013 -2.4511,1.0842 -7.1047,2.2115 -10.3413,2.5049 -5.3108,0.4816 -5.6956,0.6662 -3.9449,1.8925 5.6369,3.9482 21.1032,5.5663 24.6248,2.5762 z m -2.9933,-36.5721 c -2.0825,-1.5228 -1.4889,-4.6446 0.8833,-4.6446 1.4159,0 4.5881,3.6108 4.5881,5.2225 0,1.257 -3.462,0.8914 -5.4714,-0.5779 z m 40.2233,-0.5554 c -3.1222,-1.8056 -3.105,-3.4403 0.041,-3.9041 1.5958,-0.2353 2.3021,0.3458 2.7918,2.2966 0.8404,3.3488 0.5061,3.5385 -2.8329,1.6075 z m 84,-3 c -3.1222,-1.8056 -3.105,-3.4403 0.041,-3.9041 1.5958,-0.2353 2.3021,0.3458 2.7918,2.2966 0.8404,3.3488 0.5061,3.5385 -2.8329,1.6075 z m -682.4646,36.5513 c 8.78947,-9.0957 12.40604,-21.3551 9.35962,-31.7271 -1.52615,-5.196 -8.06157,-14.7657 -10.15201,-14.8654 -0.5528,-0.026 -2.05507,2.6598 -3.33837,5.9693 l -2.33327,6.0174 3.06966,3.4961 c 7.44698,8.4817 7.30729,11.4066 -0.89704,18.783 -6.89193,6.1964 -11.27444,7.4945 -18.50675,5.4815 -3.01903,-0.8403 -5.48914,-1.1526 -5.48914,-0.694 0,1.218 9.99344,8.5644 14.03516,10.3175 6.27677,2.7226 9.55376,2.0838 14.25214,-2.7783 z m 169.85815,-22.6044 c 1.81649,-5.4674 -0.19327,-49.7426 -2.2016,-48.5014 -0.42992,0.2657 -2.39316,3.3647 -4.36276,6.8867 -4.25308,7.6052 -4.28942,8.3539 -1.58109,32.5786 1.07608,9.625 1.98033,18.175 2.00946,19 0.0689,1.9514 4.64738,-5.4834 6.13599,-9.9639 z m 112.05716,4.3446 3.09753,-6.6192 -0.64555,-19.1308 c -0.75453,-22.3608 -1.4105,-28.0782 -3.06403,-26.7059 -0.62861,0.5217 -2.68582,4.1379 -4.57157,8.036 l -3.42865,7.0873 2.38965,21.976 c 1.31431,12.0867 2.55513,21.9759 2.75737,21.9759 0.20225,0 1.76161,-2.9787 3.46525,-6.6193 z m 139.40729,2.0219 c 1.4819,-2.5285 3.0606,-6.466 3.5084,-8.75 0.8903,-4.5406 -0.7716,-41.5412 -2.017,-44.9079 -0.6603,-1.7849 -1.3838,-0.9791 -4.9958,5.5643 l -4.2237,7.6514 2.2703,22.5198 c 1.2487,12.3859 2.3813,22.5198 2.517,22.5198 0.1356,0 1.459,-2.0688 2.9408,-4.5974 z M 568.91304,1200.5 c 3.50392,-8.6809 4.01364,-21.0822 1.17141,-28.5 -1.15907,-3.025 -2.95458,-6.5959 -3.99002,-7.9353 l -1.88262,-2.4354 -3.67492,7.2975 c -3.66301,7.2737 -3.6686,7.3043 -1.72288,9.4353 2.16409,2.3701 5.18599,7.9573 5.18599,9.5882 0,1.2341 -25.60597,1.4963 -26.36387,0.27 -0.26505,-0.4289 -1.68843,-7.7414 -3.16306,-16.25 -1.47464,-8.5087 -3.00608,-16.062 -3.4032,-16.7852 -1.06221,-1.9344 -7.13112,9.8647 -6.43774,12.5162 0.44044,1.6842 -0.81562,3.0996 -6.54075,7.3702 -7.9856,5.9568 -10.31702,9.7713 -12.09108,19.7823 -0.61928,3.4946 -0.98519,6.4477 -0.81313,6.5623 0.17206,0.1147 4.51544,0.9898 9.65196,1.9447 10.46744,1.9459 11.3297,1.6877 13.19031,-3.95 1.24395,-3.7692 2.41592,-3.7568 3.36776,0.036 0.34032,1.356 1.05829,3.6214 1.59548,5.0343 l 0.97671,2.569 16.26091,-0.2749 16.26091,-0.2748 z m -46.72206,-13.3497 c -2.77808,-0.7824 -2.61696,-1.4189 1.45117,-5.7323 l 3.14215,-3.3317 1.10785,4.3997 c 0.60932,2.4198 1.10785,4.6504 1.10785,4.9568 0,0.7133 -3.82053,0.5492 -6.80902,-0.2925 z m 151.48644,17.4623 c 1.00242,-1.313 3.17258,-4.5755 4.82258,-7.25 l 3,-4.8626 0.29381,7.25 0.29381,7.25 h 16.5027 16.5027 l 1.66963,-2.9092 1.66962,-2.9091 1.7832,2.9322 1.7832,2.9323 17.75067,-0.2731 17.75066,-0.2731 1.28629,-6 c 0.84061,-3.9211 1.09454,-9.721 0.73288,-16.7396 l -0.55341,-10.7396 3.71157,-5.59 3.71156,-5.59 -5.24062,-4.6704 c -2.94289,-2.6227 -5.56958,-5.944 -5.99091,-7.5751 l -0.75029,-2.9048 -3.09647,4.9048 c -4.46408,7.0709 -4.77379,8.8112 -2.43498,13.6819 2.05153,4.2725 4.10298,14.4891 4.11683,20.5027 l 0.008,3.2799 -12.75,-0.2799 -12.75,-0.2799 -0.25185,-8 c -0.13852,-4.4 -0.52,-9.125 -0.84773,-10.5 -0.58205,-2.442 -0.69807,-2.3846 -4.99815,2.4726 -4.12123,4.6552 -4.40227,5.3415 -4.40227,10.75 V 1189 h -14.7 c -10.00823,0 -14.3739,-0.3261 -13.67829,-1.0217 0.56194,-0.5619 2.97335,-1.3549 5.35868,-1.7621 4.14829,-0.7082 4.41443,-0.9683 6.1174,-5.9783 0.97923,-2.8808 1.69532,-5.2749 1.59131,-5.3201 -0.104,-0.045 -1.5391,-0.2735 -3.1891,-0.5073 -6.48018,-0.9182 -11.97909,-2.6236 -17.58529,-5.4536 -6.88475,-3.4754 -10.20738,-3.6855 -14.72489,-0.9313 -3.62442,2.2098 -5.63843,6.1744 -6.4639,12.7244 -0.39824,3.16 -0.19046,4.25 0.81022,4.25 0.7402,0 1.62394,-0.45 1.96386,-1 0.67166,-1.0868 10.61197,-1.3447 14.25,-0.3697 3.04748,0.8167 2.82839,2.0192 -0.70034,3.844 -2.31321,1.1962 -6.71073,1.5257 -20.36353,1.5257 h -17.41319 l -0.66401,-10.75 c -0.3652,-5.9125 -0.94094,-15.1375 -1.27942,-20.5 -0.33848,-5.3625 -0.98651,-9.75 -1.44007,-9.75 -0.45356,0 -2.55882,2.3625 -4.67836,5.25 l -3.85372,5.25 0.73339,12.5 c 0.40336,6.875 0.82226,17.45 0.93088,23.5 0.10863,6.05 0.39976,11.3375 0.64695,11.75 0.2472,0.4125 10.06524,0.75 21.81786,0.75 21.34852,0 21.3701,-0 23.19098,-2.3874 z m 157.55481,-0.8626 1.59508,-3.25 1.18417,3.25 1.18417,3.25 h 21.33046 21.33046 l 1.20241,-5.373 c 1.87079,-8.3595 0.75986,-26.7314 -2.05985,-34.0644 -4.17371,-10.8543 -9.01362,-13.1228 -15.62073,-7.3217 -4.03518,3.5429 -9.37636,13.7235 -9.37761,17.8742 -0.003,8.543 11.57437,11.5946 17.18333,4.5295 l 1.68411,-2.1214 1.06589,2.8035 c 2.1984,5.7822 2.49196,5.6733 -15.28667,5.6733 h -16.35254 l -3.27803,-15.75 c -4.26398,-20.4872 -4.3544,-20.7226 -6.23722,-16.2437 -4.20393,10.0005 -4.22187,10.1759 -1.92995,18.8799 1.18266,4.4913 2.15029,9.2793 2.15029,10.6399 0,2.4652 -0.035,2.4739 -9.89301,2.4739 -11.04436,0 -11.04509,-5e-4 -11.18856,-7.3318 l -0.0816,-4.1682 -1.45766,3.3391 c -1.86784,4.2788 -3.68935,18.6825 -2.89732,22.9109 l 0.60876,3.25 h 11.77326 11.77326 z m 29.3686,-31.0526 c -1.59393,-1.1655 -1.6191,-1.4373 -0.23917,-2.5826 2.08251,-1.7283 4.58584,-1.0878 6.39083,1.6352 1.43232,2.1608 1.37525,2.25 -1.43939,2.25 -1.61196,0 -3.73248,-0.5862 -4.71227,-1.3026 z M 1138.6255,1200 c 1.169,-3.575 2.4151,-7.7375 2.769,-9.25 l 0.6436,-2.75 h -11.3161 -11.3161 l -3.9044,-3.9985 c -4.5733,-4.6835 -4.0327,-5.9619 2.8491,-6.7375 6.3176,-0.7121 11.0766,0.3831 14.62,3.3647 2.7408,2.3062 3.0294,2.3688 3.0294,0.6565 0,-3.515 -5.2063,-12.4399 -8.3889,-14.3806 -5.7513,-3.5071 -10.4707,-2.0352 -17.3282,5.4043 -5.0624,5.4921 -7.2829,9.6512 -7.2829,13.6414 V 1189 h -6.441 c -3.5425,0 -6.6578,-0.3509 -6.9229,-0.7797 -0.265,-0.4289 -1.6884,-7.7414 -3.163,-16.25 -1.4747,-8.5087 -3.0361,-16.1156 -3.4699,-16.9043 -1.0832,-1.9696 -7.0787,9.9293 -6.3695,12.6413 0.4078,1.5594 -0.9551,3.085 -6.3067,7.0596 -8.0156,5.9531 -9.9262,8.8484 -11.8595,17.9718 -1.9038,8.9839 -1.8715,9.2613 1.077,9.2613 1.3995,0 5.4391,0.7271 8.977,1.6158 3.5379,0.8887 7.154,1.339 8.0357,1.0006 0.8818,-0.3383 2.3054,-2.4029 3.1637,-4.5878 1.456,-3.7067 3.2791,-4.5916 3.2791,-1.5917 0,0.7254 0.6843,2.9565 1.5206,4.9581 l 1.5206,3.6393 25.2294,-0.2672 25.2294,-0.2671 z m -64.4345,-12.8497 c -2.9411,-0.8283 -2.8233,-1.318 1.3119,-5.4532 l 3.4028,-3.4028 0.6218,3.1028 c 0.342,1.7066 0.8435,3.8904 1.1145,4.8529 0.5273,1.8725 -1.8309,2.2016 -6.451,0.9003 z m -356.20783,-26.856 c 1.93591,-2.4611 2.32671,-2.5807 4.32258,-1.3225 7.88207,4.9691 7.4524,4.9681 11.78695,0.028 3.43701,-3.917 3.7379,-4.6296 2.32246,-5.5 -0.89437,-0.55 -3.26248,-2.2748 -5.26248,-3.8329 l -3.63635,-2.8329 -3.00817,3.5677 -3.00816,3.5677 -4.5,-3.5757 -4.5,-3.5757 -3.75,4.2195 c -2.0625,2.3207 -3.74676,4.7241 -3.7428,5.3409 0.008,1.2459 7.81781,6.5806 9.67022,6.6056 0.64758,0.01 2.13517,-1.2018 3.30575,-2.6899 z m 143.43891,-7.4743 c 1.96785,-2.299 3.57792,-4.4768 3.57792,-4.8395 0,-0.3627 -1.0125,-1.1753 -2.25,-1.8058 -1.2375,-0.6305 -3.52274,-2.1652 -5.07831,-3.4105 l -2.8283,-2.2642 -3.89185,4.5 c -2.14052,2.475 -3.90529,4.7297 -3.9217,5.0105 -0.0346,0.5921 9.14042,6.8727 10.14224,6.9426 0.36964,0.026 2.28214,-1.8341 4.25,-4.1331 z m -349.35781,0.079 2.56427,-3.1193 4.76718,3.3602 4.76719,3.3602 3.8887,-4.4999 c 2.13879,-2.4749 3.87779,-4.7249 3.86444,-4.9999 -0.0133,-0.275 -2.30137,-2.0009 -5.0845,-3.8353 l -5.06025,-3.3354 -3.18558,3.0876 -3.18559,3.0876 -4.33308,-3.1866 -4.33308,-3.1866 -3.86699,4.1456 c -2.12684,2.2801 -3.86698,4.5598 -3.86698,5.066 0,0.8256 8.77491,7.1034 10,7.1544 0.275,0.011 1.65392,-1.383 3.06427,-3.0986 z m 552.00003,0 2.5642,-3.1193 4.7672,3.3602 4.7672,3.3602 3.8887,-4.4999 c 2.1388,-2.4749 3.8778,-4.7249 3.8645,-4.9999 -0.013,-0.275 -2.3335,-2.0228 -5.1559,-3.884 l -5.1316,-3.384 -2.9112,3.2582 -2.9112,3.2582 -4.5987,-3.2414 -4.5987,-3.2415 -3.8044,4.0785 c -2.0924,2.2432 -3.8044,4.4927 -3.8044,4.9989 0,0.8256 8.7749,7.1034 10,7.1544 0.275,0.011 1.6539,-1.383 3.0643,-3.0986 z m -510.4958,-55.362 4.9315,-1.4633 -0.33848,-10.4482 c -0.3082,-9.5136 -0.15166,-10.6351 1.75,-12.5367 1.14866,-1.1487 2.08848,-2.7781 2.08848,-3.6209 0,-1.2933 -1.56033,-1.4884 -9.99546,-1.25 -8.74315,0.247 -9.99602,0.5017 -10,2.0324 -0.003,1.1607 0.76992,1.75 2.29546,1.75 3.92887,0 4.7,1.8242 4.7,11.1182 0,11.1814 -0.29494,11.8818 -5.0034,11.8818 -3.07584,0 -4.36577,-0.6564 -6.85008,-3.4859 -7.69158,-8.7602 -9.27748,-31.3492 -3.09723,-44.1159 5.28666,-10.9208 17.12558,-9.9885 20.967,1.6511 0.7171,2.1729 1.8721,3.9507 2.56665,3.9507 0.9566,0 1.12718,-1.8794 0.70344,-7.75 -0.30767,-4.2625 -0.69609,-7.9106 -0.86315,-8.1069 -0.16707,-0.1963 -4.11303,-0.5946 -8.7688,-0.8851 -7.36373,-0.4594 -9.06134,-0.2394 -13.04847,1.6907 -10.15352,4.9152 -15.93978,15.7993 -15.97609,30.0513 -0.0588,23.0668 14.12934,35.4146 33.93863,29.5367 z m 196.65167,0.3028 c 0.21276,-0.6383 -0.69725,-2.3258 -2.02225,-3.75 -2.68693,-2.8882 -6.72062,-10.4936 -10.50489,-19.8067 l -2.50857,-6.1736 2.49157,-1.6326 c 1.37036,-0.8979 3.34397,-3.5099 4.3858,-5.8046 3.71341,-8.1787 1.67638,-16.9689 -4.95971,-21.4021 -3.10896,-2.0769 -4.53323,-2.2699 -16.75,-2.2699 -11.20188,0 -13.35212,0.2416 -13.35212,1.5 0,0.825 0.64286,1.5 1.42857,1.5 0.78572,0 2.13572,0.7071 3,1.5714 1.34255,1.3426 1.57143,5.1191 1.57143,25.9286 0,20.8095 -0.22888,24.586 -1.57143,25.9286 -0.86428,0.8643 -2.21428,1.5714 -3,1.5714 -0.78571,0 -1.42857,0.675 -1.42857,1.5 0,1.2381 1.83333,1.5 10.5,1.5 8.66667,0 10.5,-0.2619 10.5,-1.5 0,-0.825 -0.64286,-1.5 -1.42857,-1.5 -3.60863,0 -4.57143,-2.8583 -4.57143,-13.5714 0,-5.7357 0.36399,-10.4286 0.80887,-10.4286 2.15196,0 4.34815,3.1963 7.21467,10.5 3.95994,10.0897 6.45469,14.1492 9.81789,15.9759 3.21133,1.7443 9.8411,1.9765 10.37874,0.3636 z M 722,1055.1224 c 0,-13.5194 0.51385,-15.1806 4.5,-14.5483 5.03892,0.7994 8.3807,9.2536 6.96649,17.6242 -0.85384,5.0539 -5.15984,9.8017 -8.88957,9.8017 H 722 Z m 201.87481,42.4423 C 932.41398,1093.149 938,1081.0918 938,1067.0762 938,1048.9562 929.24798,1036 917.00772,1036 c -13.75866,0 -22.74672,14.1355 -21.81784,34.313 0.82531,17.9276 8.6477,28.543 21.10978,28.647 2.63981,0.022 6.04863,-0.6059 7.57515,-1.3953 z m -11.38521,-4.8751 c -4.83855,-4.8386 -5.98335,-9.9422 -5.9867,-26.6896 -0.003,-12.7454 0.25805,-15.0646 2.15356,-19.1657 2.8325,-6.1283 6.1048,-8.3558 9.80092,-6.6718 5.95918,2.7152 9.02075,14.653 8.34985,32.558 -0.51107,13.6395 -2.78363,20.5596 -7.31789,22.2836 -3.52497,1.3401 -3.25624,1.429 -6.99974,-2.3145 z m 204.24,3.503 c 1.7043,-1.2136 4.1355,-4.3409 5.4026,-6.9496 2.0849,-4.2923 2.3639,-6.6434 2.9359,-24.743 0.3477,-11 0.9662,-20.7704 1.3744,-21.7119 0.4082,-0.9416 1.6007,-1.9844 2.6499,-2.3174 1.0492,-0.333 1.9076,-1.2502 1.9076,-2.0381 0,-1.1311 -1.7888,-1.4326 -8.5,-1.4326 -9.3216,0 -11.0278,1.3054 -5.2284,4 2.8633,1.3304 3.3222,2.122 4.0575,7 0.456,3.025 0.6377,11.8036 0.4038,19.508 -0.3408,11.2272 -0.8261,14.9142 -2.4445,18.573 -4.3852,9.9134 -15.3774,8.7297 -18.2575,-1.9661 -0.6419,-2.384 -0.9651,-11.7657 -0.8027,-23.3028 0.2666,-18.9457 0.3145,-19.3308 2.5218,-20.2992 1.2375,-0.5429 2.25,-1.5554 2.25,-2.25 0,-0.933 -2.6123,-1.2629 -10,-1.2629 -7.6896,0 -10,0.3095 -10,1.3395 0,0.7367 1.125,1.8521 2.5,2.4785 l 2.5,1.1391 0.021,18.2715 c 0.03,26.0397 1.5339,31.906 9.4792,36.9697 4.0768,2.5982 12.8908,2.0837 17.2296,-1.0057 z M 1297,1096.5 c 0,-0.825 -0.81,-1.5 -1.8,-1.5 -3.4621,0 -4.2,-2.0995 -4.2,-11.95 v -9.55 h 5.4267 c 8.5293,0 13.9919,-5.0596 15.4549,-14.3148 1.5635,-9.8903 -1.1998,-16.9903 -7.9527,-20.4336 -4.4623,-2.2755 -27.9289,-2.6217 -27.9289,-0.4121 0,0.7367 1.1326,1.8555 2.5169,2.4863 l 2.5169,1.1467 -0.2669,25.7638 c -0.2656,25.6401 -0.2777,25.7684 -2.5169,26.7508 -1.2375,0.5429 -2.25,1.5554 -2.25,2.25 0,0.937 2.7096,1.2629 10.5,1.2629 8.6667,0 10.5,-0.2619 10.5,-1.5 z m -5.3333,-27.1667 c -0.3667,-0.3666 -0.6667,-6.8435 -0.6667,-14.393 0,-14.9425 0.3775,-15.8879 5.5571,-13.9186 6.9787,2.6533 7.4377,24.2348 0.5933,27.8978 -2.2933,1.2273 -4.5035,1.3941 -5.4837,0.4138 z M 149.44272,1033.9526 c 15.3685,-0.5526 27.99427,-1.1055 28.05728,-1.2287 C 194.75294,998.99563 227.28799,952.80251 259.00746,917 271.95391,902.38705 298.10679,876.01965 313,862.56458 415.85419,769.64241 541.44286,711.79104 682,692.58782 c 134.22706,-18.33839 279.36191,-2.22825 439.9533,48.83535 11.2493,3.57696 20.5586,6.39827 20.6873,6.26957 0.6117,-0.61168 -22.6442,-17.13192 -35.1251,-24.9518 -16.9443,-10.61638 -51.4704,-28.09563 -72.1533,-36.52853 -80.39301,-32.77802 -174.56301,-48.38656 -267.72389,-44.37483 -35.8246,1.5427 -51.21535,2.93185 -85.63831,7.7296 -77.69881,10.82938 -164.64257,35.13044 -246.43442,68.87922 -10.47115,4.32058 -16.16523,6.20138 -16.6076,5.48562 -0.37024,-0.59907 -14.79975,-38.84139 -32.06557,-84.98294 L 355.5,555.05536 l -38.5,-0.0252 -38.5,-0.0252 -9.38653,26.24752 c -5.16259,14.43613 -13.107,36.59751 -17.65425,49.24751 -14.87139,41.37073 -35.97769,100.15361 -52.42206,146 -8.87743,24.75 -18.33287,51.075 -21.01209,58.5 -9.24953,25.63346 -13.96727,38.76962 -39.50558,110 -14.09924,39.325 -27.18399,75.6731 -29.07723,80.7735 -1.89324,5.1004 -3.44226,9.5188 -3.44226,9.8187 0,0.2999 3.4875,0.2797 7.75,-0.045 4.2625,-0.3246 20.32423,-1.0422 35.69272,-1.5948 z M 252.46799,826.25 c 1.16369,-2.98616 14.74849,-39.96003 29.85255,-81.25 7.94711,-21.725 19.75883,-54.0125 26.24827,-71.75 C 315.05826,655.5125 320.62561,641 320.94072,641 321.45898,641 358,749.63162 358,751.17236 c 0,0.35875 -4.6125,3.99704 -10.25,8.08508 -5.6375,4.08804 -29.23438,21.2275 -52.4375,38.08768 C 272.10937,814.2053 252.82372,828 252.45551,828 c -0.36822,0 -0.3626,-0.7875 0.0125,-1.75 z M 736,1001.7623 c 1.925,-0.5882 5.075,-2.06602 7,-3.28419 3.59913,-2.27759 12.20959,-11.04196 15.2063,-15.47811 1.64484,-2.43493 1.69016,-2.25925 1.74125,6.75 L 760,999 H 782.5 805 V 938 877 H 781.5 758 v 8.0898 8.0898 l -3.95725,-5.00631 c -7.75309,-9.80839 -16.3706,-14.38382 -27.09096,-14.38382 -7.99025,0 -12.86187,1.41335 -18.75866,5.44226 -21.91912,14.97593 -29.17136,68.15463 -13.68541,100.35126 9.29827,19.3319 24.39631,27.40241 41.49228,22.17931 z m 3.84881,-48.2825 c -1.45816,-0.79208 -3.65351,-3.51063 -4.87855,-6.04124 -4.25812,-8.7961 -1.21714,-23.18252 5.55223,-26.26685 5.58887,-2.54646 11.33719,-0.75286 14.62224,4.56246 2.56185,4.14517 3.53285,14.08631 1.94791,19.94283 -2.15129,7.94923 -10.23792,11.60841 -17.24383,7.8028 z m 308.45729,46.7421 c 4.234,-1.85618 7.551,-4.42997 12.25,-9.50538 3.5442,-3.82799 6.4439,-7.35521 6.4439,-7.83825 0,-0.48305 0.45,-0.87827 1,-0.87827 0.5882,0 1,3.5 1,8.5 v 8.5 h 22.5077 22.5078 l -0.2578,-60.75 -0.2577,-60.75 -23.25,-0.26843 -23.25,-0.26843 -0.032,8.26843 -0.032,8.26843 -2.2169,-3 c -5.1178,-6.92576 -9.2904,-10.65564 -15.1441,-13.53741 -10.9625,-5.39679 -25.6637,-3.85888 -34.3728,3.59578 -13.4277,11.49368 -21.18858,36.42419 -19.90493,63.94163 0.9618,20.61792 6.91103,37.55389 16.90343,48.11928 10.6431,11.25352 22.2175,13.69082 36.1048,7.60262 z M 1049,953.73186 c -9.1258,-4.5215 -9.2173,-27.46543 -0.1282,-32.16554 9.3835,-4.85244 18.117,3.31059 18.117,16.93368 0,12.71577 -8.515,19.92578 -17.9888,15.23186 z m 292.6848,46.15677 c 6.1065,-2.91243 14.3313,-10.65719 16.6079,-15.63863 2.0315,-4.44503 2.9031,-2.22945 2.4588,6.25 l -0.4454,8.5 H 1383.153 1406 v -90.96537 -90.96538 l -24.0341,-0.28462 -24.0341,-0.28463 0.2841,38.25049 c 0.1563,21.03777 -0.023,38.25027 -0.3985,38.25 -0.3754,-2.7e-4 -0.9397,-0.81037 -1.2538,-1.80022 -0.8938,-2.81591 -10.6346,-12.16653 -15.0636,-14.46016 -2.6327,-1.36335 -6.6071,-2.22721 -11.6266,-2.52712 -11.1263,-0.66477 -16.734,1.45021 -24.3889,9.19827 -13.7244,13.89164 -20.4906,39.59722 -17.5679,66.74293 2.653,24.6411 11.258,42.26883 24.0257,49.21787 9.4379,5.13684 19.6822,5.31474 29.7425,0.51657 z m 0.3492,-44.61563 c -4.5511,-2.32809 -7.1055,-6.95766 -7.7405,-14.02863 -1.0462,-11.64967 3.0331,-19.076 10.9699,-19.97059 8.5524,-0.96399 13.6927,5.50275 13.6927,17.22622 0,13.15092 -8.1708,21.24968 -16.9221,16.773 z M 510,999.25565 c 0,-0.40939 -14.7375,-44.98072 -32.75,-99.04741 -26.69455,-80.12689 -33.04453,-98.22675 -34.34295,-97.89034 -1.566,0.40574 -46.71962,26.26233 -48.12803,27.55985 -0.58301,0.53711 23.14444,77.9314 47.78714,155.87225 l 4.50545,14.25 h 31.4642 C 495.84111,1000 510,999.66504 510,999.25565 Z M 571,908 V 817 H 546.5 522 v 91 91 h 24.5 24.5 z m 71,64.1815 c 0,-30.76009 0.67742,-34.93507 6.49766,-40.0453 6.3297,-5.55755 14.38297,-6.2784 22.70583,-2.03239 L 675,932.04065 V 902.52032 C 675,878.77726 674.74239,873 673.68366,873 c -4.2673,0 -13.77046,2.49452 -17.30055,4.54129 C 652.29588,879.9111 642,890.31878 642,892.08059 642,892.58626 641.5826,893 641.07245,893 c -0.51015,0 -0.84765,-3.4875 -0.75,-7.75 L 640.5,877.5 616.75,877.2319 593,876.9638 V 937.9819 999 H 617.5 642 Z M 893.16959,982 c 2.05099,-9.075 4.7313,-21.41938 5.95623,-27.43195 l 2.22715,-10.93195 4.26335,19.43195 c 2.34485,10.68757 5.05778,23.14445 6.02874,27.68195 l 1.76539,8.25 h 19.21207 19.21206 l 1.55425,-4.25 c 0.85484,-2.3375 3.5574,-9.875 6.0057,-16.75 2.44829,-6.875 11.4611,-32.1809 20.02846,-56.23534 C 987.99034,897.71022 995,877.79012 995,877.49777 c 0,-0.29234 -11.56926,-0.41144 -25.70946,-0.26465 L 943.58108,877.5 942.83259,881 c -0.41168,1.925 -3.05272,15.2 -5.86899,29.5 -2.81626,14.3 -5.48924,27.35 -5.93995,29 l -0.81947,3 -0.10209,-3.21661 c -0.0562,-1.76913 -2.38051,-15.04413 -5.16525,-29.5 -2.78474,-14.45586 -5.32038,-27.75675 -5.63476,-29.55752 l -0.57159,-3.27412 -16.11495,0.27412 -16.11495,0.27413 -5.674,25.5 c -3.1207,14.025 -5.9882,27.975 -6.37223,31 -1.08772,8.56811 -2.08633,8.87371 -2.77301,0.8486 -0.54891,-6.41496 -9.41594,-56.90352 -10.11875,-57.61579 -0.145,-0.14695 -11.74247,-0.14695 -25.77216,0 l -25.50853,0.26719 8.43794,26 c 26.18821,80.69424 30.55935,94.0698 30.97118,94.7709 0.24906,0.42399 9.29458,0.64899 20.10116,0.5 L 889.44051,998.5 Z M 1189,960.5 V 922 h 7.9621 7.9621 l 0.2879,-21.50931 c 0.1584,-11.83013 0.1379,-21.95513 -0.045,-22.5 -0.1834,-0.54488 -3.8959,-0.99069 -8.25,-0.99069 H 1189 l 0.011,-2.75 c 0.023,-5.73443 1.3318,-10.32788 3.6581,-12.838 2.0861,-2.25085 3.0752,-2.55359 7.3708,-2.25587 l 4.9613,0.34387 -6e-4,-17.61043 c -3e-4,-9.68573 0.2794,-19.65299 0.6215,-22.14945 0.7933,-5.78708 -0.3833,-6.49555 -13.2055,-7.95207 -16.5718,-1.88244 -28.1896,1.17794 -37.4874,9.87497 -9.591,8.97119 -13.6701,20.65706 -14.6309,41.91471 L 1139.6916,877 H 1133.3458 1127 v 22.5 22.5 h 6.5 6.5 v 38.5 38.5 h 24.5 24.5 z m 80,-22.5 v -61 h -24.5 -24.5 v 61 61 h 24.5 24.5 z m 173.614,-262.55336 c -0.2202,-0.57936 -9.1109,-7.29886 -19.7572,-14.93223 -10.6462,-7.63338 -35.3318,-25.39718 -54.8568,-39.47513 -19.525,-14.07794 -36.9625,-26.62658 -38.75,-27.88586 l -3.25,-2.28961 v 92.46917 92.46916 l 10.25,8.25287 10.25,8.25287 0.256,-80.25864 c 0.2317,-72.64098 0.4058,-80.20114 1.8346,-79.65285 0.8682,0.33318 17.7345,13.54279 37.4805,29.35469 l 35.9019,28.74892 0.041,65.5 c 0.023,36.025 0.3056,82.36753 0.6285,102.98339 l 0.587,37.4834 7.4844,17.0166 c 4.1164,9.35914 8.4522,19.26661 9.635,22.01661 l 2.1507,5 0.2571,-132 c 0.1415,-72.6 0.077,-132.47401 -0.1431,-133.05336 z m -185.8924,189.69539 c 8.549,-4.36135 13.0243,-11.723 13.9677,-22.97601 1.0861,-12.95507 -3.5115,-22.72039 -12.9756,-27.56055 -10.3549,-5.29566 -24.5895,-3.52351 -32.1106,3.99761 -8.6874,8.68738 -9.9793,28.05563 -2.5551,38.30452 3.3402,4.61098 9.3839,8.94515 14.1876,10.17455 4.9404,1.26438 15.2086,0.24203 19.486,-1.94012 z m -27.625,-77.09374 c 6.3782,-4.70156 19.0539,-13.94829 28.1683,-20.54829 14.7349,-10.66997 16.5289,-12.27709 16.1859,-14.5 -0.2121,-1.375 -0.6668,-7.31104 -1.0104,-13.1912 l -0.6248,-10.69121 -8.874,6.19121 c -7.1052,4.95717 -54.5816,38.3747 -55.7414,39.23505 -0.1649,0.12232 0.014,6.5513 0.3964,14.28662 l 0.6961,14.06423 4.6036,-3.14906 c 2.5321,-1.73199 9.8222,-6.99579 16.2003,-11.69735 z m -16.2405,-33.90483 c 2.0041,-1.5711 16.2439,-11.9937 31.6439,-23.16133 15.4,-11.16763 28.3272,-20.79469 28.7272,-21.39346 0.3999,-0.59877 0.5471,-1.76367 0.327,-2.58867 -0.22,-0.825 -0.703,-6.3375 -1.0734,-12.25 -0.3703,-5.9125 -0.9675,-10.73808 -1.327,-10.72351 -0.3596,0.0146 -14.6038,9.90806 -31.6538,21.98553 -17.05,12.07746 -31.3491,22.08192 -31.7758,22.23211 -0.7992,0.28129 0.2266,28.75587 1.0359,28.75587 0.2487,0 2.0918,-1.28544 4.096,-2.85654 z m 28.9894,-67.04945 c 26.9932,-19.67352 32.0454,-23.73991 31.6824,-25.5 -0.2376,-1.1517 -0.7218,-6.93151 -1.0761,-12.84401 -0.3544,-5.9125 -0.8617,-10.75 -1.1274,-10.75 -0.2658,0 -14.9074,10.21366 -32.5368,22.69701 l -32.0536,22.69702 0.627,8.05298 c 0.3448,4.42915 0.6297,10.67799 0.633,13.88632 0,3.20834 0.3955,5.68334 0.8716,5.5 0.4761,-0.18333 15.317,-10.86602 32.9799,-23.73932 z m -17.5662,-22.81193 3.7794,-2.34422 -0.094,-25.07133 c -0.051,-13.78922 0.048,-25.18607 0.2206,-25.32633 0.1729,-0.14026 14.7143,-10.74501 32.3143,-23.56613 17.6,-12.82111 39.293,-28.63528 48.2066,-35.14259 8.9136,-6.50731 16.4511,-11.83148 16.75,-11.83148 0.2989,0 0.5434,8.52278 0.5434,18.93951 v 18.93951 l 10.25,7.1014 10.25,7.10141 0.2676,-24.61031 c 0.1472,-13.53567 0.1472,-35.40636 0,-48.60152 l -0.2676,-23.99121 -17,12.17722 c -19.6084,14.04561 -24.4936,17.80794 -24.3594,18.76047 0.2794,1.9844 -0.2589,3.22844 -1.1569,2.67344 -0.559,-0.34546 -0.7145,-1.11655 -0.3455,-1.71353 0.4009,-0.64873 0.2053,-0.79767 -0.4864,-0.37021 -0.8692,0.53718 -0.8739,1.26012 -0.019,2.90451 0.6259,1.20412 0.7762,1.85083 0.3338,1.43713 -0.4424,-0.4137 -1.6754,0.0363 -2.74,1 -1.9937,1.80458 -7.0421,2.57171 -6.0179,0.91443 0.659,-1.06623 -6.504,3.7249 -25.7087,17.19579 -14.3395,10.05831 -61.1992,43.21334 -61.9392,43.82437 -0.3022,0.24949 -0.3716,73.08078 -0.075,79.11653 0.018,0.36039 12.0047,-6.23601 17.294,-9.51686 z M 1396,548.14514 v -84.85486 l -10.75,-8.34612 c -11.6433,-9.03969 -61.2565,-47.82686 -86.25,-67.42958 -8.525,-6.68626 -16.0625,-12.48888 -16.75,-12.89472 -0.9957,-0.58775 -1.25,15.24431 -1.25,77.80748 v 78.54537 l 9,-6.58091 9,-6.58091 v -48.48878 c 0,-26.66883 0.3591,-48.33878 0.798,-48.15544 0.4389,0.18333 6.4014,4.49273 13.25,9.57645 25.5486,18.96473 42.7341,31.64673 52.202,38.5224 l 9.75,7.0805 v 69.13495 69.13496 l 10.25,9.11459 c 5.6375,5.01303 10.3625,9.14945 10.5,9.19204 0.1375,0.0426 0.25,-38.10725 0.25,-84.77742 z m -97.3247,-14.80313 c -0.3619,-0.3619 -0.099,-1.33419 0.5834,-2.16066 1.0915,-1.32138 0.9777,-1.3385 -0.944,-0.14185 -2.168,1.34999 -2.2164,2.9605 -0.089,2.9605 0.6092,0 0.8115,-0.2961 0.4496,-0.65799 z"
       id="path1" />
  </g>
</svg>
